<svg width="1024" height="1024" viewBox="0 0 1024 1024" fill="none" xmlns="http://www.w3.org/2000/svg">
<circle cx="512" cy="512" r="512" fill="black"/>
<path fill-rule="evenodd" clip-rule="evenodd" d="M477.26 37.9822C450.234 39.7222 415.109 45.5877 392.454 52.1432C388.908 53.1683 382.436 55.0052 378.072 56.2239C356.982 62.1117 328.463 73.3387 304.672 85.1167C278.824 97.915 273.143 101.179 249.791 116.668C235.989 125.82 235.719 126.016 224.417 134.917C220.099 138.315 214.52 142.619 212.018 144.476C189.911 160.896 148.956 204.761 127.621 234.878C124.075 239.882 119.314 246.584 117.04 249.769C114.764 252.956 112.177 256.969 111.29 258.69C110.399 260.41 107.684 264.893 105.256 268.651C102.826 272.409 100.84 275.732 100.84 276.038C100.84 276.343 99.1589 279.391 97.1032 282.814C84.6798 303.511 62.4368 357.541 57.5791 378.833C56.7608 382.415 54.7894 389.454 53.195 394.476C48.2802 409.96 42.7951 441.486 41.4808 461.798C40.1517 482.341 40.0426 534.162 41.2775 558.107C42.5099 582.023 46.1129 603.991 52.4386 626.12C54.0753 631.854 56.2326 640.343 57.2319 644.984C59.6199 656.1 64.8099 670.792 67.2276 673.282C69.1073 675.218 70.6224 675.272 128.392 675.508C160.973 675.64 188.173 675.751 188.835 675.756C192.855 675.781 200.443 686.373 199.374 690.468L198.806 692.643L140.151 692.658C75.0139 692.673 76.3158 692.551 76.8216 698.66C77.206 703.267 97.4603 743.811 100.622 746.3C103.022 748.189 105.1 748.244 173.637 748.244C252.164 748.244 248.74 747.949 256.276 755.398C266.542 765.545 269.52 765.123 187.766 765.123C103.565 765.123 107.553 763.904 123.639 784.745C124.792 786.239 129.932 793.048 135.06 799.874C140.188 806.7 145.48 813.625 146.819 815.263L149.254 818.242L248.785 818.743C361.349 819.312 348.35 818.344 365.673 827.451C375.686 832.716 376.207 835.064 367.56 835.967C364.18 836.32 318.908 836.61 266.956 836.61C163.088 836.61 167.953 836.32 171.787 842.314C175.96 848.843 210.857 880.607 218.128 884.494L222.346 886.751H512.472C789.808 886.751 802.742 886.671 805.864 884.966C807.659 883.986 811.488 881.081 814.369 878.512C817.253 875.946 821.96 871.873 824.824 869.465C832.784 862.78 854.672 840.996 854.672 839.76C854.672 836.841 848.939 836.653 752.087 836.387C649.245 836.104 651.435 836.188 651.351 832.463C651.343 832.093 657.005 828.965 663.93 825.512L676.525 819.235L775.765 818.719C830.349 818.436 875.088 818.101 875.189 817.974C875.289 817.85 879.549 812.496 884.657 806.079C889.763 799.663 895.396 792.102 897.174 789.277C898.952 786.453 901.05 783.608 901.834 782.955C906.853 778.787 910.85 766.952 907.656 765.726C906.793 765.394 874.85 765.123 836.672 765.123C755.573 765.123 759.454 765.654 768.455 755.797C775.661 747.904 771.78 748.256 851.449 748.249C931.712 748.244 924.069 749.09 928.203 739.735C929.257 737.352 931.853 732.338 933.971 728.597C943.939 710.989 949.511 695.783 946.669 693.943C945.988 693.502 918.922 692.916 886.519 692.643C834.016 692.201 827.502 691.975 826.612 690.563C825.129 688.207 826.396 684.653 830.381 679.993L833.934 675.836L894.367 675.553C964.273 675.223 956.918 676.568 961.114 663.353C962.5 658.984 964.375 653.176 965.282 650.445C966.187 647.715 967.499 643.024 968.198 640.02C968.898 637.017 970.442 631.432 971.63 627.609C974.752 617.576 978.34 600.282 979.563 589.383C980.146 584.195 981.294 576.153 982.117 571.511C983.825 561.875 984.282 469.163 982.677 457.33C982.196 453.781 981.066 445.291 980.168 438.465C976.481 410.508 964.223 365.114 953.36 339.177C950.498 332.351 947.012 323.862 945.611 320.313C941.774 310.605 924.456 277.13 918.991 268.859C916.348 264.858 914.185 261.331 914.185 261.018C914.185 260.417 905.439 247.202 895.342 232.547C891.994 227.689 886.274 220.156 882.626 215.807C878.981 211.456 874.086 205.603 871.747 202.795C852.798 180.044 817.695 147.229 793.857 129.983C772.279 114.374 768.901 112.096 760.939 107.772C758.757 106.585 754.517 103.974 751.516 101.966C748.516 99.9603 740.481 95.4601 733.662 91.9676C726.843 88.4727 718.425 84.1561 714.953 82.3689C711.484 80.5842 707.02 78.591 705.034 77.9407C703.05 77.2879 700.533 76.1957 699.442 75.5131C695.753 73.1997 674.734 65.3659 658.775 60.3568C593.613 39.9059 543.429 33.7203 477.26 37.9822ZM561.57 141.058C568.117 141.976 576.821 143.406 580.912 144.238C585.004 145.069 592.485 146.581 597.539 147.596C608.214 149.738 612.863 152.047 612.442 154.986C612.164 156.929 611.42 156.986 584.88 157.073C554.957 157.173 538.058 158.957 518.654 164.068C513.345 165.466 506.769 167.178 504.041 167.871C501.313 168.563 497.296 169.901 495.114 170.842C492.932 171.785 488.915 173.23 486.187 174.051C473.022 178.021 433.33 200.626 418.593 212.548C373.137 249.319 343.311 294.443 326.03 352.581C321.562 367.616 320.071 375.74 316.987 401.895C315.786 412.072 316.327 442.248 317.899 452.862C318.383 456.139 319.327 463.287 319.997 468.748C323.984 501.287 351.918 563.263 372.616 585.484C373.435 586.362 376.854 590.617 380.217 594.936C387.857 604.748 413.609 628.863 424.985 636.858C454.618 657.683 470.463 666.413 494.965 675.416C534.814 690.059 591.042 694.254 631.002 685.566C651.098 681.197 680.649 672.035 690.6 667.086C700.943 661.945 716.619 653.384 719.28 651.426C720.917 650.222 724.547 648.077 727.349 646.657C730.149 645.238 737.422 639.923 743.512 634.85C749.599 629.776 756.458 624.059 758.752 622.148C765.313 616.682 780.157 601.35 787.207 592.754C790.745 588.442 793.922 584.692 794.271 584.419C797.083 582.21 813.757 554.3 819.981 541.382C835.459 509.255 842.031 486.868 846.251 451.882C847.838 438.731 849.497 434.117 852.431 434.683C859.691 436.082 856.941 518.804 848.56 551.157C847.426 555.526 845.708 562.451 844.738 566.547C843.769 570.643 841.785 577.121 840.33 580.944C838.874 584.766 836.677 591.468 835.449 595.837C832.732 605.495 815.483 641.221 807.776 653.151C804.699 657.914 801.515 663.102 800.701 664.673C796.741 672.341 769.432 706.58 760.974 714.486C758.928 716.397 754.961 720.26 752.153 723.067C743.055 732.179 722.149 749.569 715.508 753.553C713.549 754.73 709.096 757.781 705.614 760.337C693.736 769.055 674.628 779.651 660.263 785.489C656.717 786.929 651.361 789.364 648.36 790.901C634.861 797.806 591.166 809.996 565.746 813.945C537.688 818.304 479.782 816.636 456.998 810.813C452.599 809.688 445.527 808.11 441.28 807.303C426.391 804.476 401.522 796.721 388.982 790.992C386.8 789.997 382.225 788.006 378.818 786.572C367.605 781.853 351.023 773.158 340.876 766.674C327.625 758.21 318.834 752.293 314.333 748.807C295.793 734.458 275.285 715.459 266.946 704.91C264.851 702.259 261.768 698.749 260.097 697.111C258.426 695.472 255.291 691.675 253.137 688.671C250.979 685.668 247.327 681.073 245.02 678.459C240.783 673.661 236.446 666.676 235.166 662.596C234.782 661.374 232.411 657.239 229.894 653.404C227.38 649.572 222.718 641.306 219.536 635.036C216.352 628.768 212.045 620.957 209.962 617.68C207.879 614.404 205.214 608.595 204.038 604.773C202.863 600.95 200.859 595.142 199.585 591.865C193.395 575.957 187.025 551.177 184.652 533.782C183.794 527.502 182.705 519.81 182.229 516.689C176.759 480.819 183.07 412.186 195.037 377.386C197.286 370.843 200.601 361.244 202.404 356.056C211.093 331.036 235.228 288.908 255.019 264.215C263.928 253.1 295.778 220.575 301.32 216.931C303.296 215.633 307.856 212.084 311.457 209.046C315.057 206.005 319.246 202.895 320.761 202.133C322.278 201.371 327.312 198.039 331.949 194.733C346.384 184.437 350.912 181.99 387.991 164.45C391.264 162.901 397.245 160.667 401.279 159.486C405.314 158.302 409.589 156.696 410.779 155.917C417.504 151.506 467.165 141.344 490.651 139.576C507.441 138.31 548.044 139.159 561.57 141.058ZM251.946 904.265L247.825 905.199L250.458 907.934C251.909 909.438 254.88 911.799 257.062 913.181C259.244 914.564 263.589 917.336 266.718 919.342C269.845 921.35 272.644 922.991 272.937 922.991C273.23 922.991 275.132 924.036 277.167 925.314C281.445 928 300.028 938.011 308.422 942.149C318.13 946.934 316.21 946.895 516.936 946.602L707.377 946.324L726.786 936.266C759.627 919.25 778.768 906.529 774.6 904.489C772.152 903.292 257.208 903.071 251.946 904.265ZM379.8 965.767C383.24 971.468 408.332 977.872 445.52 982.541C450.43 983.159 457.308 984.319 460.805 985.123C474.689 988.308 542.236 987.918 565.042 984.522C568.588 983.994 575.283 983.107 579.92 982.551C611.346 978.776 638.675 971.918 645.709 966.042L648.512 963.699H513.531H378.55L379.8 965.767Z" fill="white"/>
</svg>
